<svg t="1703303858056" class="icon" viewBox="0 0 1024 1024" version="1.1" xmlns="http://www.w3.org/2000/svg" p-id="18661" width="480" height="480"><path d="M512 627.549758a195.749466 195.749466 0 1 1 195.749466-195.749466 195.749466 195.749466 0 0 1-195.749466 195.749466z m0-322.410885a126.661419 126.661419 0 1 0 126.661419 126.661419 126.661419 126.661419 0 0 0-126.661419-126.661419zM239.965816 954.911953h575.733723v69.088047h-575.733723z" p-id="18662"></path><path d="M575.647363 857.135095l59.830249-34.544023 86.360058 149.581378-59.830248 34.544024zM333.821927 972.19548l86.360059-149.575622 59.830248 34.544024-86.360058 149.575621zM477.455977 34.544023h69.088046v115.146745H477.455977z" p-id="18663"></path><path d="M512 863.600585a431.800292 431.800292 0 1 1 431.800292-431.800293 432.318453 432.318453 0 0 1-431.800292 431.800293z m0-794.512538a362.712246 362.712246 0 1 0 362.712246 362.712245 363.115259 363.115259 0 0 0-362.712246-362.712245z" p-id="18664"></path></svg>