<svg t="1703303558130" class="icon" viewBox="0 0 1024 1024" version="1.1" xmlns="http://www.w3.org/2000/svg" p-id="17566" width="480" height="480"><path d="M230.3 206.04m78.86 0l448.4 0q78.86 0 78.86 78.86l0 448.4q0 78.86-78.86 78.86l-448.4 0q-78.86 0-78.86-78.86l0-448.4q0-78.86 78.86-78.86Z" fill="#EFEFEF" p-id="17567"></path><path d="M140.6 354.84a16 16 0 0 1-16-16v-222a16 16 0 0 1 16-16h245.82a16 16 0 0 1 0 32H156.6v206a16 16 0 0 1-16 16zM386.42 912.78H140.6a16 16 0 0 1-16-16V629.6a16 16 0 0 1 32 0v251.18h229.82a16 16 0 0 1 0 32zM920.6 912.78H677.16a16 16 0 0 1 0-32H904.6V629.6a16 16 0 0 1 32 0v267.18a16 16 0 0 1-16 16zM920.6 354.84a16 16 0 0 1-16-16v-206H677.16a16 16 0 0 1 0-32H920.6a16 16 0 0 1 16 16v222a16 16 0 0 1-16 16z" fill="#18659E" p-id="17568"></path><path d="M775.38 696.96H288.44V316.58h486.94v380.38z" fill="#FFFFFF" p-id="17569"></path><path d="M775.38 712.96H288.44a16 16 0 0 1-16-16V316.58a16 16 0 0 1 16-16h486.94a16 16 0 0 1 16 16v380.38a16 16 0 0 1-16 16z m-470.94-32h454.94V332.58H304.44z" fill="#18659E" p-id="17570"></path><path d="M410.36 431.04l-121.92 120.76v145.16h486.94v-162.94 101.96l-121.94-116.46-103.9 79.2-139.18-167.68z" fill="#99D1FF" p-id="17571"></path><path d="M775.38 712.96H288.44a16 16 0 0 1-16-16V551.8a16 16 0 0 1 4.74-11.36l122-120.76a16 16 0 0 1 23.58 1.14L552 576.68l91.7-69.9a16 16 0 0 1 20.76 1.16l94.88 90.62V534a16 16 0 0 1 32 0v162.94a16 16 0 0 1-15.96 16.02z m-470.94-32h454.94v-38.14l-107.1-102.28-93.04 70.92a16 16 0 0 1-22-2.5l-128-154.24-104.76 103.76z" fill="#18659E" p-id="17572"></path><path d="M639.72 431.04m-47.06 0a47.06 47.06 0 1 0 94.12 0 47.06 47.06 0 1 0-94.12 0Z" fill="#99D1FF" p-id="17573"></path><path d="M639.72 494a63.06 63.06 0 1 1 63.06-63.06A63.12 63.12 0 0 1 639.72 494z m0-94.1a31.06 31.06 0 1 0 31.06 31.06A31.08 31.08 0 0 0 639.72 400z" fill="#18659E" p-id="17574"></path></svg>